<mxfile host="app.diagrams.net" agent="Mozilla/5.0 (Windows NT 10.0; Win64; x64) AppleWebKit/537.36 (KHTML, like Gecko) Chrome/130.0.0.0 Safari/537.36 Edg/130.0.0.0" version="24.8.4" pages="3">
  <diagram name="Page-1" id="Me1oGmO71xqQFZZEzUqT">
    <mxGraphModel dx="946" dy="671" grid="1" gridSize="10" guides="1" tooltips="1" connect="1" arrows="1" fold="1" page="1" pageScale="1" pageWidth="850" pageHeight="1100" math="0" shadow="0">
      <root>
        <mxCell id="0" />
        <mxCell id="1" parent="0" />
        <mxCell id="IY7rvp7xD9QYvmLXro7n-1" value="خریدار (اجاره کننده)" style="shape=umlActor;verticalLabelPosition=bottom;verticalAlign=top;html=1;outlineConnect=0;" vertex="1" parent="1">
          <mxGeometry x="50" y="450" width="30" height="60" as="geometry" />
        </mxCell>
        <mxCell id="IY7rvp7xD9QYvmLXro7n-3" value="" style="rounded=0;whiteSpace=wrap;html=1;" vertex="1" parent="1">
          <mxGeometry x="160" y="40" width="370" height="640" as="geometry" />
        </mxCell>
        <mxCell id="IY7rvp7xD9QYvmLXro7n-4" value="" style="ellipse;whiteSpace=wrap;html=1;" vertex="1" parent="1">
          <mxGeometry x="210" y="140" width="120" height="80" as="geometry" />
        </mxCell>
        <mxCell id="IY7rvp7xD9QYvmLXro7n-6" value="" style="endArrow=none;html=1;rounded=0;entryX=0;entryY=0.5;entryDx=0;entryDy=0;exitX=1;exitY=0.3333333333333333;exitDx=0;exitDy=0;exitPerimeter=0;" edge="1" parent="1" source="IY7rvp7xD9QYvmLXro7n-1" target="IY7rvp7xD9QYvmLXro7n-4">
          <mxGeometry width="50" height="50" relative="1" as="geometry">
            <mxPoint x="80" y="360" as="sourcePoint" />
            <mxPoint x="130" y="310" as="targetPoint" />
          </mxGeometry>
        </mxCell>
        <mxCell id="IY7rvp7xD9QYvmLXro7n-7" value="&lt;div&gt;&lt;span style=&quot;background-color: initial;&quot;&gt;&amp;nbsp;مشاهده لیست خودرو ها&lt;/span&gt;&lt;/div&gt;" style="text;html=1;align=center;verticalAlign=middle;whiteSpace=wrap;rounded=0;" vertex="1" parent="1">
          <mxGeometry x="220" y="165" width="100" height="30" as="geometry" />
        </mxCell>
        <mxCell id="IY7rvp7xD9QYvmLXro7n-8" value="" style="ellipse;whiteSpace=wrap;html=1;" vertex="1" parent="1">
          <mxGeometry x="210" y="230" width="120" height="80" as="geometry" />
        </mxCell>
        <mxCell id="IY7rvp7xD9QYvmLXro7n-9" value="ساخت حساب کاربری" style="text;html=1;align=center;verticalAlign=middle;whiteSpace=wrap;rounded=0;" vertex="1" parent="1">
          <mxGeometry x="215" y="255" width="110" height="30" as="geometry" />
        </mxCell>
        <mxCell id="IY7rvp7xD9QYvmLXro7n-10" value="" style="ellipse;whiteSpace=wrap;html=1;" vertex="1" parent="1">
          <mxGeometry x="180" y="350" width="120" height="80" as="geometry" />
        </mxCell>
        <mxCell id="IY7rvp7xD9QYvmLXro7n-11" value="قرار دادن ماشین برای فروش یا اجاره" style="text;html=1;align=center;verticalAlign=middle;whiteSpace=wrap;rounded=0;" vertex="1" parent="1">
          <mxGeometry x="190" y="375" width="100" height="30" as="geometry" />
        </mxCell>
        <mxCell id="IY7rvp7xD9QYvmLXro7n-12" value="" style="ellipse;whiteSpace=wrap;html=1;" vertex="1" parent="1">
          <mxGeometry x="410" y="140" width="120" height="80" as="geometry" />
        </mxCell>
        <mxCell id="IY7rvp7xD9QYvmLXro7n-13" value="مشاهده زمان باقی مانده از اجاره" style="text;html=1;align=center;verticalAlign=middle;whiteSpace=wrap;rounded=0;" vertex="1" parent="1">
          <mxGeometry x="420" y="165" width="100" height="30" as="geometry" />
        </mxCell>
        <mxCell id="IY7rvp7xD9QYvmLXro7n-14" value="" style="ellipse;whiteSpace=wrap;html=1;" vertex="1" parent="1">
          <mxGeometry x="210" y="600" width="120" height="80" as="geometry" />
        </mxCell>
        <mxCell id="IY7rvp7xD9QYvmLXro7n-15" value="ورود به پنل حساب کاربری" style="text;html=1;align=center;verticalAlign=middle;whiteSpace=wrap;rounded=0;" vertex="1" parent="1">
          <mxGeometry x="215" y="632.5" width="110" height="15" as="geometry" />
        </mxCell>
        <mxCell id="IY7rvp7xD9QYvmLXro7n-17" value="بازدید کننده" style="shape=umlActor;verticalLabelPosition=bottom;verticalAlign=top;html=1;outlineConnect=0;" vertex="1" parent="1">
          <mxGeometry x="60" y="220" width="30" height="60" as="geometry" />
        </mxCell>
        <mxCell id="IY7rvp7xD9QYvmLXro7n-19" value="" style="endArrow=none;html=1;rounded=0;entryX=0;entryY=0.5;entryDx=0;entryDy=0;" edge="1" parent="1" target="IY7rvp7xD9QYvmLXro7n-4">
          <mxGeometry width="50" height="50" relative="1" as="geometry">
            <mxPoint x="90" y="240" as="sourcePoint" />
            <mxPoint x="130" y="240" as="targetPoint" />
          </mxGeometry>
        </mxCell>
        <mxCell id="IY7rvp7xD9QYvmLXro7n-20" value="" style="endArrow=none;html=1;rounded=0;entryX=0;entryY=0.5;entryDx=0;entryDy=0;exitX=1;exitY=0.3333333333333333;exitDx=0;exitDy=0;exitPerimeter=0;" edge="1" parent="1" source="IY7rvp7xD9QYvmLXro7n-17" target="IY7rvp7xD9QYvmLXro7n-8">
          <mxGeometry width="50" height="50" relative="1" as="geometry">
            <mxPoint x="100" y="260" as="sourcePoint" />
            <mxPoint x="160" y="235" as="targetPoint" />
          </mxGeometry>
        </mxCell>
        <mxCell id="IY7rvp7xD9QYvmLXro7n-21" value="" style="endArrow=none;html=1;rounded=0;entryX=0.047;entryY=0.608;entryDx=0;entryDy=0;entryPerimeter=0;exitX=1;exitY=0.3333333333333333;exitDx=0;exitDy=0;exitPerimeter=0;" edge="1" parent="1" source="IY7rvp7xD9QYvmLXro7n-1" target="IY7rvp7xD9QYvmLXro7n-34">
          <mxGeometry width="50" height="50" relative="1" as="geometry">
            <mxPoint x="80" y="450" as="sourcePoint" />
            <mxPoint x="120" y="410" as="targetPoint" />
          </mxGeometry>
        </mxCell>
        <mxCell id="IY7rvp7xD9QYvmLXro7n-22" value="" style="endArrow=none;html=1;rounded=0;entryX=0;entryY=0.5;entryDx=0;entryDy=0;" edge="1" parent="1" target="IY7rvp7xD9QYvmLXro7n-14">
          <mxGeometry width="50" height="50" relative="1" as="geometry">
            <mxPoint x="80" y="470" as="sourcePoint" />
            <mxPoint x="140" y="410" as="targetPoint" />
          </mxGeometry>
        </mxCell>
        <mxCell id="IY7rvp7xD9QYvmLXro7n-24" value="" style="endArrow=block;dashed=1;endFill=0;endSize=12;html=1;rounded=0;exitX=0;exitY=0.5;exitDx=0;exitDy=0;entryX=1;entryY=0.5;entryDx=0;entryDy=0;" edge="1" parent="1" source="IY7rvp7xD9QYvmLXro7n-12" target="IY7rvp7xD9QYvmLXro7n-4">
          <mxGeometry width="160" relative="1" as="geometry">
            <mxPoint x="340" y="390" as="sourcePoint" />
            <mxPoint x="500" y="390" as="targetPoint" />
          </mxGeometry>
        </mxCell>
        <mxCell id="IY7rvp7xD9QYvmLXro7n-27" value="اگر ماشین اجاره شده باشد" style="text;html=1;align=center;verticalAlign=middle;whiteSpace=wrap;rounded=0;" vertex="1" parent="1">
          <mxGeometry x="350" y="140" width="60" height="30" as="geometry" />
        </mxCell>
        <mxCell id="IY7rvp7xD9QYvmLXro7n-29" value="&amp;lt;&amp;lt;extend&amp;gt;&amp;gt;" style="text;html=1;align=center;verticalAlign=middle;whiteSpace=wrap;rounded=0;fontSize=9;" vertex="1" parent="1">
          <mxGeometry x="350" y="170" width="60" height="30" as="geometry" />
        </mxCell>
        <mxCell id="IY7rvp7xD9QYvmLXro7n-34" value="" style="ellipse;whiteSpace=wrap;html=1;" vertex="1" parent="1">
          <mxGeometry x="180" y="440" width="120" height="80" as="geometry" />
        </mxCell>
        <mxCell id="IY7rvp7xD9QYvmLXro7n-35" value="انتخاب ماشین برای اجاره یا خرید" style="text;html=1;align=center;verticalAlign=middle;whiteSpace=wrap;rounded=0;" vertex="1" parent="1">
          <mxGeometry x="195" y="465" width="90" height="30" as="geometry" />
        </mxCell>
        <mxCell id="IY7rvp7xD9QYvmLXro7n-36" value="" style="endArrow=none;html=1;rounded=0;" edge="1" parent="1" source="IY7rvp7xD9QYvmLXro7n-16">
          <mxGeometry width="50" height="50" relative="1" as="geometry">
            <mxPoint x="570" y="410" as="sourcePoint" />
            <mxPoint x="620" y="360" as="targetPoint" />
          </mxGeometry>
        </mxCell>
        <mxCell id="IY7rvp7xD9QYvmLXro7n-37" value="" style="endArrow=none;html=1;rounded=0;" edge="1" parent="1">
          <mxGeometry width="50" height="50" relative="1" as="geometry">
            <mxPoint x="330" y="640" as="sourcePoint" />
            <mxPoint x="590" y="360" as="targetPoint" />
          </mxGeometry>
        </mxCell>
        <mxCell id="IY7rvp7xD9QYvmLXro7n-16" value="فروشنده (اجاره دهنده)" style="shape=umlActor;verticalLabelPosition=bottom;verticalAlign=top;html=1;outlineConnect=0;" vertex="1" parent="1">
          <mxGeometry x="590" y="330" width="30" height="60" as="geometry" />
        </mxCell>
        <mxCell id="IY7rvp7xD9QYvmLXro7n-38" value="" style="endArrow=none;html=1;rounded=0;exitX=1;exitY=0.5;exitDx=0;exitDy=0;" edge="1" parent="1" source="IY7rvp7xD9QYvmLXro7n-10" target="IY7rvp7xD9QYvmLXro7n-16">
          <mxGeometry width="50" height="50" relative="1" as="geometry">
            <mxPoint x="400" y="410" as="sourcePoint" />
            <mxPoint x="450" y="360" as="targetPoint" />
          </mxGeometry>
        </mxCell>
        <mxCell id="IY7rvp7xD9QYvmLXro7n-39" value="" style="endArrow=none;html=1;rounded=0;exitX=1;exitY=1;exitDx=0;exitDy=0;" edge="1" parent="1" source="IY7rvp7xD9QYvmLXro7n-4">
          <mxGeometry width="50" height="50" relative="1" as="geometry">
            <mxPoint x="540" y="410" as="sourcePoint" />
            <mxPoint x="590" y="360" as="targetPoint" />
          </mxGeometry>
        </mxCell>
        <mxCell id="IY7rvp7xD9QYvmLXro7n-40" value="" style="endArrow=block;dashed=1;endFill=0;endSize=12;html=1;rounded=0;exitX=1.022;exitY=0.65;exitDx=0;exitDy=0;exitPerimeter=0;entryX=0.024;entryY=0.614;entryDx=0;entryDy=0;entryPerimeter=0;" edge="1" parent="1" source="IY7rvp7xD9QYvmLXro7n-10" target="IY7rvp7xD9QYvmLXro7n-41">
          <mxGeometry width="160" relative="1" as="geometry">
            <mxPoint x="340" y="370" as="sourcePoint" />
            <mxPoint x="500" y="390" as="targetPoint" />
          </mxGeometry>
        </mxCell>
        <mxCell id="IY7rvp7xD9QYvmLXro7n-41" value="بررسی خوردگی های ماشین" style="ellipse;whiteSpace=wrap;html=1;" vertex="1" parent="1">
          <mxGeometry x="380" y="390" width="140" height="70" as="geometry" />
        </mxCell>
        <mxCell id="IY7rvp7xD9QYvmLXro7n-42" value="" style="endArrow=block;dashed=1;endFill=0;endSize=12;html=1;rounded=0;exitX=1;exitY=0.5;exitDx=0;exitDy=0;entryX=-0.024;entryY=0.605;entryDx=0;entryDy=0;entryPerimeter=0;" edge="1" parent="1" source="IY7rvp7xD9QYvmLXro7n-34" target="IY7rvp7xD9QYvmLXro7n-41">
          <mxGeometry width="160" relative="1" as="geometry">
            <mxPoint x="340" y="390" as="sourcePoint" />
            <mxPoint x="500" y="390" as="targetPoint" />
          </mxGeometry>
        </mxCell>
        <mxCell id="IY7rvp7xD9QYvmLXro7n-44" value="&amp;lt;&amp;lt;include&amp;gt;&amp;gt;" style="text;html=1;align=center;verticalAlign=middle;whiteSpace=wrap;rounded=0;fontSize=10;rotation=0;" vertex="1" parent="1">
          <mxGeometry x="310" y="420" width="60" height="30" as="geometry" />
        </mxCell>
        <mxCell id="IY7rvp7xD9QYvmLXro7n-46" value="ثبت نظر روی کیفیت ماشین" style="ellipse;whiteSpace=wrap;html=1;" vertex="1" parent="1">
          <mxGeometry x="215" y="520" width="140" height="70" as="geometry" />
        </mxCell>
        <mxCell id="IY7rvp7xD9QYvmLXro7n-47" value="" style="endArrow=none;html=1;rounded=0;entryX=0;entryY=0.5;entryDx=0;entryDy=0;" edge="1" parent="1" target="IY7rvp7xD9QYvmLXro7n-46">
          <mxGeometry width="50" height="50" relative="1" as="geometry">
            <mxPoint x="80" y="470" as="sourcePoint" />
            <mxPoint x="130" y="430" as="targetPoint" />
          </mxGeometry>
        </mxCell>
        <mxCell id="IY7rvp7xD9QYvmLXro7n-49" value="سیستم اجاره و فروش خودرو" style="text;html=1;align=center;verticalAlign=middle;whiteSpace=wrap;rounded=0;fontStyle=1;fontSize=17;" vertex="1" parent="1">
          <mxGeometry x="241.25" y="60" width="197.5" height="30" as="geometry" />
        </mxCell>
      </root>
    </mxGraphModel>
  </diagram>
  <diagram id="JauQzKFLT9TeFyIH7e6y" name="Page-2">
    <mxGraphModel grid="1" page="1" gridSize="10" guides="1" tooltips="1" connect="1" arrows="1" fold="1" pageScale="1" pageWidth="850" pageHeight="1100" math="0" shadow="0">
      <root>
        <mxCell id="0" />
        <mxCell id="1" parent="0" />
        <mxCell id="myxiOlxtA_Yie6UEJxvB-1" value="&lt;p style=&quot;margin:0px;margin-top:4px;text-align:center;&quot;&gt;&lt;b&gt;بازدید کننده&lt;/b&gt;&lt;/p&gt;&lt;hr size=&quot;1&quot; style=&quot;border-style:solid;&quot;&gt;&lt;p style=&quot;margin:0px;margin-left:4px;&quot;&gt;+ viewableCars&lt;/p&gt;&lt;hr size=&quot;1&quot; style=&quot;border-style:solid;&quot;&gt;&lt;p style=&quot;margin:0px;margin-left:4px;&quot;&gt;+ viewCars()&lt;/p&gt;&lt;p style=&quot;margin:0px;margin-left:4px;&quot;&gt;+ viewComments()&lt;/p&gt;&lt;p style=&quot;margin:0px;margin-left:4px;&quot;&gt;+ createAccount()&lt;/p&gt;" style="verticalAlign=top;align=left;overflow=fill;html=1;whiteSpace=wrap;" vertex="1" parent="1">
          <mxGeometry x="345" y="70" width="160" height="110" as="geometry" />
        </mxCell>
        <mxCell id="myxiOlxtA_Yie6UEJxvB-2" value="&lt;p style=&quot;margin:0px;margin-top:4px;text-align:center;&quot;&gt;&lt;b&gt;خریدار (فروشنده)&lt;/b&gt;&lt;/p&gt;&lt;hr size=&quot;1&quot; style=&quot;border-style:solid;&quot;&gt;&lt;p style=&quot;margin: 0px 0px 0px 4px;&quot;&gt;+ userId&lt;/p&gt;&lt;p style=&quot;margin: 0px 0px 0px 4px;&quot;&gt;+&amp;nbsp;name&lt;/p&gt;&lt;p style=&quot;margin: 0px 0px 0px 4px;&quot;&gt;+&amp;nbsp;email&lt;/p&gt;&lt;p style=&quot;margin: 0px 0px 0px 4px;&quot;&gt;+&amp;nbsp;verifiedDocuments&lt;/p&gt;&lt;hr size=&quot;1&quot; style=&quot;border-style:solid;&quot;&gt;&lt;p style=&quot;margin:0px;margin-left:4px;&quot;&gt;&lt;span style=&quot;background-color: initial;&quot;&gt;+ placeCarForRentOrSale()&lt;/span&gt;&lt;/p&gt;&lt;p style=&quot;margin:0px;margin-left:4px;&quot;&gt;+ registerComments()&lt;span style=&quot;background-color: initial;&quot;&gt;&lt;/span&gt;&lt;/p&gt;&lt;p style=&quot;margin: 0px 0px 0px 4px;&quot;&gt;+ viewRemainingRentalPeriod()&lt;/p&gt;&lt;p style=&quot;margin: 0px 0px 0px 4px;&quot;&gt;+ displayCorrosion()&lt;/p&gt;" style="verticalAlign=top;align=left;overflow=fill;html=1;whiteSpace=wrap;" vertex="1" parent="1">
          <mxGeometry x="320.5" y="250" width="210" height="160" as="geometry" />
        </mxCell>
        <mxCell id="myxiOlxtA_Yie6UEJxvB-3" value="&lt;p style=&quot;margin:0px;margin-top:4px;text-align:center;&quot;&gt;&lt;b&gt;ماشین&lt;/b&gt;&lt;/p&gt;&lt;hr size=&quot;1&quot; style=&quot;border-style:solid;&quot;&gt;&lt;p style=&quot;margin:0px;margin-left:4px;&quot;&gt;+ carId&lt;/p&gt;&lt;p style=&quot;margin:0px;margin-left:4px;&quot;&gt;+&amp;nbsp;model&lt;/p&gt;&lt;p style=&quot;margin:0px;margin-left:4px;&quot;&gt;+&amp;nbsp;year&lt;/p&gt;&lt;p style=&quot;margin:0px;margin-left:4px;&quot;&gt;+ price&lt;/p&gt;&lt;p style=&quot;margin:0px;margin-left:4px;&quot;&gt;+&amp;nbsp;isForSale&lt;/p&gt;&lt;p style=&quot;margin:0px;margin-left:4px;&quot;&gt;+&amp;nbsp;isForRent&lt;/p&gt;&lt;p style=&quot;margin:0px;margin-left:4px;&quot;&gt;+&amp;nbsp;corrosionPoints&lt;/p&gt;&lt;p style=&quot;margin:0px;margin-left:4px;&quot;&gt;+ images&lt;/p&gt;&lt;hr size=&quot;1&quot; style=&quot;border-style:solid;&quot;&gt;&lt;p style=&quot;margin:0px;margin-left:4px;&quot;&gt;+ setForSale()&lt;/p&gt;&lt;p style=&quot;margin:0px;margin-left:4px;&quot;&gt;+&amp;nbsp;setForRent()&lt;/p&gt;&lt;p style=&quot;margin:0px;margin-left:4px;&quot;&gt;+&amp;nbsp;detectCorrosion()&lt;/p&gt;" style="verticalAlign=top;align=left;overflow=fill;html=1;whiteSpace=wrap;" vertex="1" parent="1">
          <mxGeometry x="640" y="460" width="170" height="210" as="geometry" />
        </mxCell>
        <mxCell id="myxiOlxtA_Yie6UEJxvB-4" value="&lt;p style=&quot;margin:0px;margin-top:4px;text-align:center;&quot;&gt;&lt;b&gt;اکانت&lt;/b&gt;&lt;/p&gt;&lt;hr size=&quot;1&quot; style=&quot;border-style:solid;&quot;&gt;&lt;p style=&quot;margin:0px;margin-left:4px;&quot;&gt;&lt;span style=&quot;background-color: initial;&quot;&gt;+ accountId&lt;/span&gt;&lt;/p&gt;&lt;p style=&quot;margin:0px;margin-left:4px;&quot;&gt;&lt;span style=&quot;background-color: initial;&quot;&gt;+&amp;nbsp;&lt;/span&gt;&lt;span style=&quot;background-color: initial;&quot;&gt;username&lt;/span&gt;&lt;/p&gt;&lt;p style=&quot;margin:0px;margin-left:4px;&quot;&gt;&lt;span style=&quot;background-color: initial;&quot;&gt;+&amp;nbsp;&lt;/span&gt;&lt;span style=&quot;background-color: initial;&quot;&gt;password&lt;/span&gt;&lt;/p&gt;&lt;hr size=&quot;1&quot; style=&quot;border-style:solid;&quot;&gt;&lt;p style=&quot;margin:0px;margin-left:4px;&quot;&gt;+&amp;nbsp;verifyIdentity()&lt;/p&gt;&lt;p style=&quot;margin:0px;margin-left:4px;&quot;&gt;+&amp;nbsp;&lt;span style=&quot;background-color: initial;&quot;&gt;viewRentedCars()&lt;/span&gt;&lt;/p&gt;&lt;p style=&quot;margin:0px;margin-left:4px;&quot;&gt;&lt;span style=&quot;background-color: initial;&quot;&gt;+&amp;nbsp;&lt;/span&gt;&lt;span style=&quot;background-color: initial;&quot;&gt;viewLeasedCars()&lt;/span&gt;&lt;/p&gt;" style="verticalAlign=top;align=left;overflow=fill;html=1;whiteSpace=wrap;" vertex="1" parent="1">
          <mxGeometry x="323" y="520" width="205" height="130" as="geometry" />
        </mxCell>
        <mxCell id="myxiOlxtA_Yie6UEJxvB-6" value="&lt;p style=&quot;margin:0px;margin-top:4px;text-align:center;&quot;&gt;&lt;b&gt;اجاره&lt;/b&gt;&lt;/p&gt;&lt;hr size=&quot;1&quot; style=&quot;border-style:solid;&quot;&gt;&lt;p style=&quot;margin:0px;margin-left:4px;&quot;&gt;+&amp;nbsp;carId&lt;/p&gt;&lt;p style=&quot;margin:0px;margin-left:4px;&quot;&gt;+ lessorId&lt;/p&gt;&lt;p style=&quot;margin:0px;margin-left:4px;&quot;&gt;+ renterId&lt;/p&gt;&lt;p style=&quot;margin:0px;margin-left:4px;&quot;&gt;+&amp;nbsp;startDate&lt;/p&gt;&lt;p style=&quot;margin:0px;margin-left:4px;&quot;&gt;+ endDate&lt;/p&gt;&lt;hr size=&quot;1&quot; style=&quot;border-style:solid;&quot;&gt;&lt;p style=&quot;margin:0px;margin-left:4px;&quot;&gt;+&amp;nbsp;getRemainingRentalPeriod()&lt;/p&gt;" style="verticalAlign=top;align=left;overflow=fill;html=1;whiteSpace=wrap;" vertex="1" parent="1">
          <mxGeometry x="635" y="730" width="180" height="140" as="geometry" />
        </mxCell>
        <mxCell id="myxiOlxtA_Yie6UEJxvB-7" value="" style="html=1;verticalAlign=bottom;endArrow=block;curved=0;rounded=0;exitX=0.5;exitY=0;exitDx=0;exitDy=0;entryX=0.5;entryY=1;entryDx=0;entryDy=0;" edge="1" parent="1" source="myxiOlxtA_Yie6UEJxvB-2" target="myxiOlxtA_Yie6UEJxvB-1">
          <mxGeometry width="80" relative="1" as="geometry">
            <mxPoint x="380" y="290" as="sourcePoint" />
            <mxPoint x="460" y="290" as="targetPoint" />
          </mxGeometry>
        </mxCell>
        <mxCell id="myxiOlxtA_Yie6UEJxvB-9" value="" style="endArrow=diamondThin;endFill=1;endSize=24;html=1;rounded=0;exitX=0.5;exitY=0;exitDx=0;exitDy=0;entryX=0.5;entryY=1;entryDx=0;entryDy=0;" edge="1" parent="1" source="myxiOlxtA_Yie6UEJxvB-4" target="myxiOlxtA_Yie6UEJxvB-2">
          <mxGeometry width="160" relative="1" as="geometry">
            <mxPoint x="340" y="350" as="sourcePoint" />
            <mxPoint x="500" y="350" as="targetPoint" />
          </mxGeometry>
        </mxCell>
        <mxCell id="myxiOlxtA_Yie6UEJxvB-10" value="" style="endArrow=diamondThin;endFill=0;endSize=24;html=1;rounded=0;exitX=0.5;exitY=0;exitDx=0;exitDy=0;entryX=1;entryY=0.5;entryDx=0;entryDy=0;" edge="1" parent="1" source="myxiOlxtA_Yie6UEJxvB-3" target="myxiOlxtA_Yie6UEJxvB-2">
          <mxGeometry width="160" relative="1" as="geometry">
            <mxPoint x="340" y="350" as="sourcePoint" />
            <mxPoint x="500" y="350" as="targetPoint" />
          </mxGeometry>
        </mxCell>
        <mxCell id="myxiOlxtA_Yie6UEJxvB-11" value="" style="endArrow=diamondThin;endFill=1;endSize=24;html=1;rounded=0;entryX=0.5;entryY=1;entryDx=0;entryDy=0;exitX=0.5;exitY=0;exitDx=0;exitDy=0;" edge="1" parent="1" source="myxiOlxtA_Yie6UEJxvB-6" target="myxiOlxtA_Yie6UEJxvB-3">
          <mxGeometry width="160" relative="1" as="geometry">
            <mxPoint x="350" y="640" as="sourcePoint" />
            <mxPoint x="510" y="640" as="targetPoint" />
          </mxGeometry>
        </mxCell>
      </root>
    </mxGraphModel>
  </diagram>
  <diagram id="Wdx-pngv28Yx8AFfd5AZ" name="Page-3">
    <mxGraphModel grid="1" page="1" gridSize="10" guides="1" tooltips="1" connect="1" arrows="1" fold="1" pageScale="1" pageWidth="850" pageHeight="1100" math="0" shadow="0">
      <root>
        <mxCell id="0" />
        <mxCell id="1" parent="0" />
        <mxCell id="pcvxkKWbGvpCtbqO5N0D-4" value="ثبت ماشین برای فروش یا اجاره" style="html=1;whiteSpace=wrap;" vertex="1" parent="1">
          <mxGeometry x="350" y="-1060" width="130" height="50" as="geometry" />
        </mxCell>
        <mxCell id="pcvxkKWbGvpCtbqO5N0D-9" value="سیستم" style="shape=umlLifeline;perimeter=lifelinePerimeter;whiteSpace=wrap;html=1;container=1;dropTarget=0;collapsible=0;recursiveResize=0;outlineConnect=0;portConstraint=eastwest;newEdgeStyle={&quot;curved&quot;:0,&quot;rounded&quot;:0};" vertex="1" parent="1">
          <mxGeometry x="480" y="-960" width="100" height="340" as="geometry" />
        </mxCell>
        <mxCell id="pcvxkKWbGvpCtbqO5N0D-33" value="" style="html=1;points=[[0,0,0,0,5],[0,1,0,0,-5],[1,0,0,0,5],[1,1,0,0,-5]];perimeter=orthogonalPerimeter;outlineConnect=0;targetShapes=umlLifeline;portConstraint=eastwest;newEdgeStyle={&quot;curved&quot;:0,&quot;rounded&quot;:0};" vertex="1" parent="pcvxkKWbGvpCtbqO5N0D-9">
          <mxGeometry x="45" y="70" width="10" height="260" as="geometry" />
        </mxCell>
        <mxCell id="pcvxkKWbGvpCtbqO5N0D-12" value="کاربر ثبت شده" style="shape=umlLifeline;perimeter=lifelinePerimeter;whiteSpace=wrap;html=1;container=1;dropTarget=0;collapsible=0;recursiveResize=0;outlineConnect=0;portConstraint=eastwest;newEdgeStyle={&quot;curved&quot;:0,&quot;rounded&quot;:0};participant=umlActor;size=50;" vertex="1" parent="1">
          <mxGeometry x="310" y="-970" width="20" height="360" as="geometry" />
        </mxCell>
        <mxCell id="pcvxkKWbGvpCtbqO5N0D-32" value="" style="html=1;points=[[0,0,0,0,5],[0,1,0,0,-5],[1,0,0,0,5],[1,1,0,0,-5]];perimeter=orthogonalPerimeter;outlineConnect=0;targetShapes=umlLifeline;portConstraint=eastwest;newEdgeStyle={&quot;curved&quot;:0,&quot;rounded&quot;:0};" vertex="1" parent="pcvxkKWbGvpCtbqO5N0D-12">
          <mxGeometry x="5" y="80" width="10" height="260" as="geometry" />
        </mxCell>
        <mxCell id="pcvxkKWbGvpCtbqO5N0D-15" value="" style="endArrow=classic;html=1;rounded=0;entryX=0.48;entryY=0.393;entryDx=0;entryDy=0;entryPerimeter=0;" edge="1" parent="1">
          <mxGeometry width="50" height="50" relative="1" as="geometry">
            <mxPoint x="321" y="-880" as="sourcePoint" />
            <mxPoint x="529.5" y="-880" as="targetPoint" />
          </mxGeometry>
        </mxCell>
        <mxCell id="pcvxkKWbGvpCtbqO5N0D-18" value="ثبت رمز و نام کاربری&amp;nbsp;" style="edgeLabel;html=1;align=center;verticalAlign=middle;resizable=0;points=[];" connectable="0" vertex="1" parent="pcvxkKWbGvpCtbqO5N0D-15">
          <mxGeometry x="-0.0919" y="-3" relative="1" as="geometry">
            <mxPoint as="offset" />
          </mxGeometry>
        </mxCell>
        <mxCell id="pcvxkKWbGvpCtbqO5N0D-20" value="" style="endArrow=classic;html=1;rounded=0;" edge="1" parent="1">
          <mxGeometry width="50" height="50" relative="1" as="geometry">
            <mxPoint x="530" y="-840" as="sourcePoint" />
            <mxPoint x="320" y="-840" as="targetPoint" />
          </mxGeometry>
        </mxCell>
        <mxCell id="pcvxkKWbGvpCtbqO5N0D-21" value="ورود به سیستم" style="edgeLabel;html=1;align=center;verticalAlign=middle;resizable=0;points=[];" connectable="0" vertex="1" parent="pcvxkKWbGvpCtbqO5N0D-20">
          <mxGeometry x="-0.054" y="1" relative="1" as="geometry">
            <mxPoint x="-16" as="offset" />
          </mxGeometry>
        </mxCell>
        <mxCell id="pcvxkKWbGvpCtbqO5N0D-22" value="" style="endArrow=classic;html=1;rounded=0;" edge="1" parent="1">
          <mxGeometry width="50" height="50" relative="1" as="geometry">
            <mxPoint x="320" y="-800" as="sourcePoint" />
            <mxPoint x="530" y="-800" as="targetPoint" />
          </mxGeometry>
        </mxCell>
        <mxCell id="pcvxkKWbGvpCtbqO5N0D-23" value="ثبت اطلاعات ماشین" style="edgeLabel;html=1;align=center;verticalAlign=middle;resizable=0;points=[];" connectable="0" vertex="1" parent="pcvxkKWbGvpCtbqO5N0D-22">
          <mxGeometry x="0.2349" y="1" relative="1" as="geometry">
            <mxPoint x="-35" as="offset" />
          </mxGeometry>
        </mxCell>
        <mxCell id="pcvxkKWbGvpCtbqO5N0D-24" value="" style="endArrow=classic;html=1;rounded=0;" edge="1" parent="1">
          <mxGeometry width="50" height="50" relative="1" as="geometry">
            <mxPoint x="530" y="-760" as="sourcePoint" />
            <mxPoint x="320" y="-760" as="targetPoint" />
          </mxGeometry>
        </mxCell>
        <mxCell id="pcvxkKWbGvpCtbqO5N0D-25" value="انتظار برای آپلود فیلم و عکس از ماشین" style="edgeLabel;html=1;align=center;verticalAlign=middle;resizable=0;points=[];" connectable="0" vertex="1" parent="pcvxkKWbGvpCtbqO5N0D-24">
          <mxGeometry x="-0.1683" y="3" relative="1" as="geometry">
            <mxPoint x="-28" y="-3" as="offset" />
          </mxGeometry>
        </mxCell>
        <mxCell id="pcvxkKWbGvpCtbqO5N0D-26" value="" style="endArrow=classic;html=1;rounded=0;" edge="1" parent="1">
          <mxGeometry width="50" height="50" relative="1" as="geometry">
            <mxPoint x="320" y="-720" as="sourcePoint" />
            <mxPoint x="530" y="-720" as="targetPoint" />
          </mxGeometry>
        </mxCell>
        <mxCell id="pcvxkKWbGvpCtbqO5N0D-27" value="آپلود فیلم و عکس" style="edgeLabel;html=1;align=center;verticalAlign=middle;resizable=0;points=[];" connectable="0" vertex="1" parent="pcvxkKWbGvpCtbqO5N0D-26">
          <mxGeometry x="0.1397" y="-1" relative="1" as="geometry">
            <mxPoint x="-25" as="offset" />
          </mxGeometry>
        </mxCell>
        <mxCell id="pcvxkKWbGvpCtbqO5N0D-28" value="" style="endArrow=classic;html=1;rounded=0;" edge="1" parent="1">
          <mxGeometry width="50" height="50" relative="1" as="geometry">
            <mxPoint x="530" y="-680" as="sourcePoint" />
            <mxPoint x="320" y="-680" as="targetPoint" />
          </mxGeometry>
        </mxCell>
        <mxCell id="pcvxkKWbGvpCtbqO5N0D-29" value="تشخیص خوردگی های ماشین" style="edgeLabel;html=1;align=center;verticalAlign=middle;resizable=0;points=[];" connectable="0" vertex="1" parent="pcvxkKWbGvpCtbqO5N0D-28">
          <mxGeometry x="-0.0921" y="3" relative="1" as="geometry">
            <mxPoint x="-20" y="-3" as="offset" />
          </mxGeometry>
        </mxCell>
        <mxCell id="pcvxkKWbGvpCtbqO5N0D-30" value="" style="endArrow=classic;html=1;rounded=0;" edge="1" parent="1">
          <mxGeometry width="50" height="50" relative="1" as="geometry">
            <mxPoint x="320" y="-640" as="sourcePoint" />
            <mxPoint x="530" y="-640" as="targetPoint" />
          </mxGeometry>
        </mxCell>
        <mxCell id="pcvxkKWbGvpCtbqO5N0D-31" value="تایید&amp;nbsp;" style="edgeLabel;html=1;align=center;verticalAlign=middle;resizable=0;points=[];" connectable="0" vertex="1" parent="pcvxkKWbGvpCtbqO5N0D-30">
          <mxGeometry x="-0.0889" y="-1" relative="1" as="geometry">
            <mxPoint as="offset" />
          </mxGeometry>
        </mxCell>
        <mxCell id="pcvxkKWbGvpCtbqO5N0D-34" value="کاربر ثبت شده" style="shape=umlLifeline;perimeter=lifelinePerimeter;whiteSpace=wrap;html=1;container=1;dropTarget=0;collapsible=0;recursiveResize=0;outlineConnect=0;portConstraint=eastwest;newEdgeStyle={&quot;curved&quot;:0,&quot;rounded&quot;:0};participant=umlActor;size=50;" vertex="1" parent="1">
          <mxGeometry x="160" y="-430" width="20" height="420" as="geometry" />
        </mxCell>
        <mxCell id="pcvxkKWbGvpCtbqO5N0D-62" value="" style="html=1;points=[[0,0,0,0,5],[0,1,0,0,-5],[1,0,0,0,5],[1,1,0,0,-5]];perimeter=orthogonalPerimeter;outlineConnect=0;targetShapes=umlLifeline;portConstraint=eastwest;newEdgeStyle={&quot;curved&quot;:0,&quot;rounded&quot;:0};" vertex="1" parent="pcvxkKWbGvpCtbqO5N0D-34">
          <mxGeometry x="5" y="100" width="10" height="220" as="geometry" />
        </mxCell>
        <mxCell id="pcvxkKWbGvpCtbqO5N0D-63" value="" style="html=1;points=[[0,0,0,0,5],[0,1,0,0,-5],[1,0,0,0,5],[1,1,0,0,-5]];perimeter=orthogonalPerimeter;outlineConnect=0;targetShapes=umlLifeline;portConstraint=eastwest;newEdgeStyle={&quot;curved&quot;:0,&quot;rounded&quot;:0};" vertex="1" parent="pcvxkKWbGvpCtbqO5N0D-34">
          <mxGeometry x="5" y="360" width="10" height="40" as="geometry" />
        </mxCell>
        <mxCell id="pcvxkKWbGvpCtbqO5N0D-36" value="اجاره کردن یا خرید ماشین" style="html=1;whiteSpace=wrap;" vertex="1" parent="1">
          <mxGeometry x="350" y="-510" width="130" height="50" as="geometry" />
        </mxCell>
        <mxCell id="pcvxkKWbGvpCtbqO5N0D-37" value="سیستم" style="shape=umlLifeline;perimeter=lifelinePerimeter;whiteSpace=wrap;html=1;container=1;dropTarget=0;collapsible=0;recursiveResize=0;outlineConnect=0;portConstraint=eastwest;newEdgeStyle={&quot;curved&quot;:0,&quot;rounded&quot;:0};" vertex="1" parent="1">
          <mxGeometry x="365" y="-420" width="100" height="400" as="geometry" />
        </mxCell>
        <mxCell id="pcvxkKWbGvpCtbqO5N0D-64" value="" style="html=1;points=[[0,0,0,0,5],[0,1,0,0,-5],[1,0,0,0,5],[1,1,0,0,-5]];perimeter=orthogonalPerimeter;outlineConnect=0;targetShapes=umlLifeline;portConstraint=eastwest;newEdgeStyle={&quot;curved&quot;:0,&quot;rounded&quot;:0};" vertex="1" parent="pcvxkKWbGvpCtbqO5N0D-37">
          <mxGeometry x="45" y="90" width="10" height="290" as="geometry" />
        </mxCell>
        <mxCell id="pcvxkKWbGvpCtbqO5N0D-39" value="مالک خودرو" style="shape=umlLifeline;perimeter=lifelinePerimeter;whiteSpace=wrap;html=1;container=1;dropTarget=0;collapsible=0;recursiveResize=0;outlineConnect=0;portConstraint=eastwest;newEdgeStyle={&quot;curved&quot;:0,&quot;rounded&quot;:0};participant=umlActor;size=50;" vertex="1" parent="1">
          <mxGeometry x="600" y="-430" width="20" height="380" as="geometry" />
        </mxCell>
        <mxCell id="pcvxkKWbGvpCtbqO5N0D-65" value="" style="html=1;points=[[0,0,0,0,5],[0,1,0,0,-5],[1,0,0,0,5],[1,1,0,0,-5]];perimeter=orthogonalPerimeter;outlineConnect=0;targetShapes=umlLifeline;portConstraint=eastwest;newEdgeStyle={&quot;curved&quot;:0,&quot;rounded&quot;:0};" vertex="1" parent="pcvxkKWbGvpCtbqO5N0D-39">
          <mxGeometry x="5" y="320" width="10" height="40" as="geometry" />
        </mxCell>
        <mxCell id="pcvxkKWbGvpCtbqO5N0D-41" value="" style="endArrow=classic;html=1;rounded=0;" edge="1" parent="1">
          <mxGeometry width="50" height="50" relative="1" as="geometry">
            <mxPoint x="169.5" y="-320" as="sourcePoint" />
            <mxPoint x="420.25" y="-320" as="targetPoint" />
          </mxGeometry>
        </mxCell>
        <mxCell id="pcvxkKWbGvpCtbqO5N0D-42" value="ثبت رمز و نام کابری" style="edgeLabel;html=1;align=center;verticalAlign=middle;resizable=0;points=[];" connectable="0" vertex="1" parent="pcvxkKWbGvpCtbqO5N0D-41">
          <mxGeometry x="0.1663" relative="1" as="geometry">
            <mxPoint x="-27" as="offset" />
          </mxGeometry>
        </mxCell>
        <mxCell id="pcvxkKWbGvpCtbqO5N0D-43" value="" style="endArrow=classic;html=1;rounded=0;" edge="1" parent="1" target="pcvxkKWbGvpCtbqO5N0D-34">
          <mxGeometry width="50" height="50" relative="1" as="geometry">
            <mxPoint x="417.5" y="-290" as="sourcePoint" />
            <mxPoint x="222.5" y="-290" as="targetPoint" />
          </mxGeometry>
        </mxCell>
        <mxCell id="pcvxkKWbGvpCtbqO5N0D-44" value="ورود" style="edgeLabel;html=1;align=center;verticalAlign=middle;resizable=0;points=[];" connectable="0" vertex="1" parent="pcvxkKWbGvpCtbqO5N0D-43">
          <mxGeometry x="0.065" y="4" relative="1" as="geometry">
            <mxPoint x="2" y="-4" as="offset" />
          </mxGeometry>
        </mxCell>
        <mxCell id="pcvxkKWbGvpCtbqO5N0D-47" value="درخواست برای نمایش اطلاعات وخوردگی های ماشین" style="endArrow=classic;html=1;rounded=0;" edge="1" parent="1" source="pcvxkKWbGvpCtbqO5N0D-34">
          <mxGeometry x="-0.0698" width="50" height="50" relative="1" as="geometry">
            <mxPoint x="200" y="-180" as="sourcePoint" />
            <mxPoint x="415" y="-180" as="targetPoint" />
            <mxPoint as="offset" />
          </mxGeometry>
        </mxCell>
        <mxCell id="pcvxkKWbGvpCtbqO5N0D-48" value="" style="endArrow=classic;html=1;rounded=0;" edge="1" parent="1" source="pcvxkKWbGvpCtbqO5N0D-37">
          <mxGeometry width="50" height="50" relative="1" as="geometry">
            <mxPoint x="420" y="-100" as="sourcePoint" />
            <mxPoint x="615" y="-100" as="targetPoint" />
          </mxGeometry>
        </mxCell>
        <mxCell id="pcvxkKWbGvpCtbqO5N0D-49" value="انتظار تایید مالک خودرو" style="edgeLabel;html=1;align=center;verticalAlign=middle;resizable=0;points=[];" connectable="0" vertex="1" parent="pcvxkKWbGvpCtbqO5N0D-48">
          <mxGeometry x="0.1607" y="5" relative="1" as="geometry">
            <mxPoint x="-17" y="5" as="offset" />
          </mxGeometry>
        </mxCell>
        <mxCell id="pcvxkKWbGvpCtbqO5N0D-50" value="" style="endArrow=classic;html=1;rounded=0;" edge="1" parent="1" source="pcvxkKWbGvpCtbqO5N0D-39">
          <mxGeometry width="50" height="50" relative="1" as="geometry">
            <mxPoint x="605" y="-80" as="sourcePoint" />
            <mxPoint x="410" y="-80" as="targetPoint" />
          </mxGeometry>
        </mxCell>
        <mxCell id="pcvxkKWbGvpCtbqO5N0D-51" value="تایید" style="edgeLabel;html=1;align=center;verticalAlign=middle;resizable=0;points=[];" connectable="0" vertex="1" parent="pcvxkKWbGvpCtbqO5N0D-50">
          <mxGeometry x="0.188" y="1" relative="1" as="geometry">
            <mxPoint x="17" as="offset" />
          </mxGeometry>
        </mxCell>
        <mxCell id="pcvxkKWbGvpCtbqO5N0D-52" value="" style="endArrow=classic;html=1;rounded=0;" edge="1" parent="1">
          <mxGeometry width="50" height="50" relative="1" as="geometry">
            <mxPoint x="169.5" y="-240" as="sourcePoint" />
            <mxPoint x="414.5" y="-240" as="targetPoint" />
          </mxGeometry>
        </mxCell>
        <mxCell id="pcvxkKWbGvpCtbqO5N0D-53" value="درخواست برای مشاهده لیست ماشین ها" style="edgeLabel;html=1;align=center;verticalAlign=middle;resizable=0;points=[];" connectable="0" vertex="1" parent="pcvxkKWbGvpCtbqO5N0D-52">
          <mxGeometry x="0.2632" y="-2" relative="1" as="geometry">
            <mxPoint x="-22" y="-2" as="offset" />
          </mxGeometry>
        </mxCell>
        <mxCell id="pcvxkKWbGvpCtbqO5N0D-54" value="" style="endArrow=classic;html=1;rounded=0;" edge="1" parent="1" target="pcvxkKWbGvpCtbqO5N0D-34">
          <mxGeometry width="50" height="50" relative="1" as="geometry">
            <mxPoint x="417.5" y="-220" as="sourcePoint" />
            <mxPoint x="222.5" y="-220" as="targetPoint" />
          </mxGeometry>
        </mxCell>
        <mxCell id="pcvxkKWbGvpCtbqO5N0D-55" value="نمایش لیست ماشین&amp;nbsp;" style="edgeLabel;html=1;align=center;verticalAlign=middle;resizable=0;points=[];" connectable="0" vertex="1" parent="pcvxkKWbGvpCtbqO5N0D-54">
          <mxGeometry x="-0.2222" y="1" relative="1" as="geometry">
            <mxPoint x="-21" as="offset" />
          </mxGeometry>
        </mxCell>
        <mxCell id="pcvxkKWbGvpCtbqO5N0D-56" value="" style="endArrow=classic;html=1;rounded=0;" edge="1" parent="1">
          <mxGeometry width="50" height="50" relative="1" as="geometry">
            <mxPoint x="414.5" y="-150" as="sourcePoint" />
            <mxPoint x="169.5" y="-150" as="targetPoint" />
          </mxGeometry>
        </mxCell>
        <mxCell id="pcvxkKWbGvpCtbqO5N0D-57" value="نمایش اطلاعات و خوردگی های ماشین" style="edgeLabel;html=1;align=center;verticalAlign=middle;resizable=0;points=[];" connectable="0" vertex="1" parent="pcvxkKWbGvpCtbqO5N0D-56">
          <mxGeometry x="-0.1197" relative="1" as="geometry">
            <mxPoint as="offset" />
          </mxGeometry>
        </mxCell>
        <mxCell id="pcvxkKWbGvpCtbqO5N0D-58" value="" style="endArrow=classic;html=1;rounded=0;" edge="1" parent="1">
          <mxGeometry width="50" height="50" relative="1" as="geometry">
            <mxPoint x="169.5" y="-120" as="sourcePoint" />
            <mxPoint x="414.5" y="-120" as="targetPoint" />
          </mxGeometry>
        </mxCell>
        <mxCell id="pcvxkKWbGvpCtbqO5N0D-59" value="ثبت درخواست برای ماشین" style="edgeLabel;html=1;align=center;verticalAlign=middle;resizable=0;points=[];" connectable="0" vertex="1" parent="pcvxkKWbGvpCtbqO5N0D-58">
          <mxGeometry x="0.0789" relative="1" as="geometry">
            <mxPoint as="offset" />
          </mxGeometry>
        </mxCell>
        <mxCell id="pcvxkKWbGvpCtbqO5N0D-60" value="" style="endArrow=classic;html=1;rounded=0;" edge="1" parent="1">
          <mxGeometry width="50" height="50" relative="1" as="geometry">
            <mxPoint x="414.5" y="-50" as="sourcePoint" />
            <mxPoint x="169.5" y="-50" as="targetPoint" />
          </mxGeometry>
        </mxCell>
        <mxCell id="pcvxkKWbGvpCtbqO5N0D-61" value="تایید درخواست و نمایش محل تحویل خودرو" style="edgeLabel;html=1;align=center;verticalAlign=middle;resizable=0;points=[];" connectable="0" vertex="1" parent="pcvxkKWbGvpCtbqO5N0D-60">
          <mxGeometry x="-0.1361" y="1" relative="1" as="geometry">
            <mxPoint x="-18" as="offset" />
          </mxGeometry>
        </mxCell>
      </root>
    </mxGraphModel>
  </diagram>
</mxfile>
